<svg xmlns="http://www.w3.org/2000/svg" xmlns:xlink="http://www.w3.org/1999/xlink" viewBox="0,0,256,256" width="150px" height="150px"><g fill="#209e50" fill-rule="nonzero" stroke="none" stroke-width="1" stroke-linecap="butt" stroke-linejoin="miter" stroke-miterlimit="10" stroke-dasharray="" stroke-dashoffset="0" font-family="none" font-weight="none" font-size="none" text-anchor="none" style="mix-blend-mode: normal"><g transform="scale(5.12,5.12)"><path d="M30,26v9h-4.18c0.12,-0.38 0.18,-0.78 0.18,-1.2v-7.8zM30,37v9h-13c-1.65,0 -3,-1.35 -3,-3v-5h7.8c1.03,0 1.98,-0.37 2.71,-1zM32,26h16v9h-16zM32,37h16v6c0,1.65 -1.35,3 -3,3h-13zM30,15v9h-4v-7.8c0,-0.42 -0.06,-0.82 -0.18,-1.2zM32,15h16v9h-16zM30,4v9h-5.49c-0.73,-0.63 -1.68,-1 -2.71,-1h-7.8v-5c0,-1.65 1.35,-3 3,-3zM48,7v6h-16v-9h13c1.65,0 3,1.35 3,3zM21.8,36h-17.6c-1.215,0 -2.2,-0.985 -2.2,-2.2v-17.6c0,-1.215 0.985,-2.2 2.2,-2.2h17.6c1.215,0 2.2,0.985 2.2,2.2v17.6c0,1.215 -0.985,2.2 -2.2,2.2zM7.968,19l3.494,5.978l-3.831,6.022h2.863l2.521,-4.716l2.533,4.716h2.821l-3.769,-6l3.685,-6h-2.675l-2.455,4.505l-2.323,-4.505z"></path></g></g></svg>